<svg width="358" height="127" viewBox="0 0 358 127" fill="none" xmlns="http://www.w3.org/2000/svg">
<g filter="url(#filter0_di_342_33)">
<path d="M33.68 85.864C30.48 85.864 27.536 85.48 24.848 84.712C22.224 83.88 20.144 82.824 18.608 81.544C17.136 80.264 16.4 78.952 16.4 77.608C16.4 76.904 16.56 76.136 16.88 75.304C17.264 74.472 17.744 73.736 18.32 73.096C18.96 72.456 19.696 72.136 20.528 72.136C21.424 72.136 22.352 72.52 23.312 73.288C24.336 73.992 25.584 74.696 27.056 75.4C28.592 76.104 30.704 76.456 33.392 76.456C36.272 76.456 38.16 76.008 39.056 75.112C40.016 74.216 40.496 73.288 40.496 72.328C40.496 70.92 39.92 69.832 38.768 69.064C37.68 68.296 36.272 67.688 34.544 67.24C32.816 66.728 30.96 66.184 28.976 65.608C27.056 65.032 25.232 64.296 23.504 63.4C21.776 62.44 20.368 61.16 19.28 59.56C18.192 57.896 17.648 55.752 17.648 53.128C17.648 50.824 18.192 48.584 19.28 46.408C20.368 44.232 22.16 42.44 24.656 41.032C27.152 39.56 30.544 38.824 34.832 38.824C37.456 38.824 39.92 39.112 42.224 39.688C44.592 40.2 46.512 40.936 47.984 41.896C49.456 42.856 50.192 43.912 50.192 45.064C50.192 45.64 50 46.408 49.616 47.368C49.232 48.264 48.688 49.096 47.984 49.864C47.344 50.632 46.544 51.016 45.584 51.016C44.88 51.016 44.016 50.792 42.992 50.344C42.032 49.832 40.912 49.352 39.632 48.904C38.352 48.456 36.816 48.232 35.024 48.232C33.424 48.232 32.144 48.456 31.184 48.904C30.224 49.352 29.52 49.896 29.072 50.536C28.624 51.176 28.4 51.848 28.4 52.552C28.4 53.704 28.944 54.6 30.032 55.24C31.12 55.88 32.528 56.424 34.256 56.872C36.048 57.32 37.904 57.832 39.824 58.408C41.808 58.92 43.664 59.688 45.392 60.712C47.184 61.736 48.624 63.144 49.712 64.936C50.8 66.664 51.344 68.936 51.344 71.752C51.344 76.04 49.808 79.464 46.736 82.024C43.728 84.584 39.376 85.864 33.68 85.864ZM76.3993 85C70.6393 85 66.2233 83.752 63.1513 81.256C60.1433 78.76 58.6393 74.792 58.6393 69.352V22.888C58.6393 21.736 59.3113 20.808 60.6553 20.104C61.9993 19.4 63.3753 19.048 64.7833 19.048C66.3193 19.048 67.7273 19.4 69.0073 20.104C70.3513 20.808 71.0233 21.736 71.0233 22.888V39.4H82.3513C83.3753 39.4 84.1433 39.88 84.6553 40.84C85.2313 41.736 85.5193 42.76 85.5193 43.912C85.5193 45.064 85.2313 46.12 84.6553 47.08C84.1433 47.976 83.3753 48.424 82.3513 48.424H71.0233V69.352C71.0233 71.272 71.4073 72.616 72.1753 73.384C73.0073 74.152 74.4153 74.536 76.3993 74.536H80.1433C81.9353 74.536 83.2473 75.08 84.0793 76.168C84.9753 77.256 85.4233 78.44 85.4233 79.72C85.4233 81.064 84.9753 82.28 84.0793 83.368C83.2473 84.456 81.9353 85 80.1433 85H76.3993ZM112.279 85.864C108.439 85.864 104.919 84.968 101.719 83.176C98.5833 81.32 96.0553 78.92 94.1353 75.976C92.2793 72.968 91.3513 69.768 91.3513 66.376V43.336C91.3513 42.376 91.9593 41.48 93.1753 40.648C94.4553 39.816 95.9273 39.4 97.5913 39.4C99.2553 39.4 100.695 39.816 101.911 40.648C103.127 41.48 103.735 42.376 103.735 43.336V66.376C103.735 67.848 104.119 69.224 104.887 70.504C105.655 71.784 106.679 72.872 107.959 73.768C109.239 74.6 110.647 75.016 112.183 75.016C113.783 75.016 115.191 74.6 116.407 73.768C117.687 72.936 118.711 71.848 119.479 70.504C120.247 69.16 120.631 67.784 120.631 66.376V43.24C120.631 42.216 121.239 41.32 122.455 40.552C123.735 39.784 125.175 39.4 126.775 39.4C128.631 39.4 130.135 39.784 131.287 40.552C132.439 41.32 133.015 42.216 133.015 43.24V66.376C133.015 69.832 132.055 73.064 130.135 76.072C128.279 79.016 125.751 81.384 122.551 83.176C119.415 84.968 115.991 85.864 112.279 85.864ZM157.343 85.864C154.335 85.864 151.551 84.936 148.991 83.08C146.431 81.224 144.383 78.792 142.847 75.784C141.311 72.776 140.543 69.576 140.543 66.184V58.312C140.543 54.728 141.311 51.464 142.847 48.52C144.383 45.576 146.431 43.24 148.991 41.512C151.551 39.72 154.399 38.824 157.535 38.824C160.543 38.824 163.103 39.592 165.215 41.128C167.327 42.6 168.895 44.264 169.919 46.12V16.648C169.919 15.496 170.527 14.568 171.743 13.864C172.959 13.16 174.463 12.808 176.255 12.808C177.983 12.808 179.423 13.16 180.575 13.864C181.727 14.568 182.303 15.496 182.303 16.648V80.968C182.303 81.992 181.727 82.92 180.575 83.752C179.423 84.584 177.983 85 176.255 85C174.719 85 173.407 84.584 172.319 83.752C171.231 82.92 170.687 81.992 170.687 80.968V78.28C169.727 80.264 167.999 82.024 165.503 83.56C163.071 85.096 160.351 85.864 157.343 85.864ZM161.279 75.016C162.943 75.016 164.415 74.568 165.695 73.672C166.975 72.712 167.999 71.688 168.767 70.6C169.535 69.448 169.919 68.552 169.919 67.912V58.312C169.919 56.52 169.471 54.984 168.575 53.704C167.743 52.424 166.655 51.432 165.311 50.728C164.031 50.024 162.719 49.672 161.375 49.672C159.839 49.672 158.399 50.12 157.055 51.016C155.775 51.848 154.751 52.904 153.983 54.184C153.279 55.464 152.927 56.84 152.927 58.312V66.184C152.927 67.656 153.279 69.064 153.983 70.408C154.751 71.752 155.775 72.872 157.055 73.768C158.335 74.6 159.743 75.016 161.279 75.016ZM198.1 29.224C196.244 29.224 194.644 28.616 193.3 27.4C191.956 26.12 191.284 24.712 191.284 23.176C191.284 21.512 191.956 20.104 193.3 18.952C194.644 17.736 196.244 17.128 198.1 17.128C200.02 17.128 201.62 17.736 202.9 18.952C204.18 20.104 204.82 21.512 204.82 23.176C204.82 24.712 204.18 26.12 202.9 27.4C201.62 28.616 200.02 29.224 198.1 29.224ZM198.1 85C196.308 85 194.836 84.584 193.684 83.752C192.532 82.92 191.956 81.992 191.956 80.968V43.24C191.956 42.088 192.532 41.16 193.684 40.456C194.836 39.752 196.308 39.4 198.1 39.4C199.828 39.4 201.3 39.752 202.516 40.456C203.732 41.16 204.34 42.088 204.34 43.24V80.968C204.34 81.992 203.732 82.92 202.516 83.752C201.3 84.584 199.828 85 198.1 85ZM232.808 85.864C229.096 85.864 225.672 84.968 222.536 83.176C219.4 81.32 216.872 78.888 214.952 75.88C213.032 72.872 212.072 69.64 212.072 66.184V58.312C212.072 54.856 213 51.656 214.856 48.712C216.712 45.704 219.208 43.304 222.344 41.512C225.544 39.72 229.032 38.824 232.808 38.824C236.584 38.824 240.04 39.72 243.176 41.512C246.376 43.24 248.904 45.576 250.76 48.52C252.68 51.464 253.64 54.728 253.64 58.312V66.184C253.64 69.576 252.68 72.776 250.76 75.784C248.84 78.792 246.28 81.224 243.08 83.08C239.944 84.936 236.52 85.864 232.808 85.864ZM232.808 75.016C234.344 75.016 235.752 74.6 237.032 73.768C238.312 72.936 239.336 71.848 240.104 70.504C240.872 69.096 241.256 67.656 241.256 66.184V58.312C241.256 56.84 240.872 55.464 240.104 54.184C239.336 52.904 238.312 51.848 237.032 51.016C235.816 50.12 234.408 49.672 232.808 49.672C231.272 49.672 229.864 50.088 228.584 50.92C227.304 51.752 226.28 52.84 225.512 54.184C224.808 55.464 224.456 56.84 224.456 58.312V66.184C224.456 67.656 224.808 69.096 225.512 70.504C226.28 71.848 227.304 72.936 228.584 73.768C229.864 74.6 231.272 75.016 232.808 75.016ZM276.399 85.864C273.199 85.864 270.255 85.48 267.567 84.712C264.943 83.88 262.863 82.824 261.327 81.544C259.855 80.264 259.119 78.952 259.119 77.608C259.119 76.904 259.279 76.136 259.599 75.304C259.983 74.472 260.463 73.736 261.039 73.096C261.679 72.456 262.415 72.136 263.247 72.136C264.143 72.136 265.071 72.52 266.031 73.288C267.055 73.992 268.303 74.696 269.775 75.4C271.311 76.104 273.423 76.456 276.111 76.456C278.991 76.456 280.879 76.008 281.775 75.112C282.735 74.216 283.215 73.288 283.215 72.328C283.215 70.92 282.639 69.832 281.487 69.064C280.399 68.296 278.991 67.688 277.263 67.24C275.535 66.728 273.679 66.184 271.695 65.608C269.775 65.032 267.951 64.296 266.223 63.4C264.495 62.44 263.087 61.16 261.999 59.56C260.911 57.896 260.367 55.752 260.367 53.128C260.367 50.824 260.911 48.584 261.999 46.408C263.087 44.232 264.879 42.44 267.375 41.032C269.871 39.56 273.263 38.824 277.551 38.824C280.175 38.824 282.639 39.112 284.943 39.688C287.311 40.2 289.231 40.936 290.703 41.896C292.175 42.856 292.911 43.912 292.911 45.064C292.911 45.64 292.719 46.408 292.335 47.368C291.951 48.264 291.407 49.096 290.703 49.864C290.063 50.632 289.263 51.016 288.303 51.016C287.599 51.016 286.735 50.792 285.711 50.344C284.751 49.832 283.631 49.352 282.351 48.904C281.071 48.456 279.535 48.232 277.743 48.232C276.143 48.232 274.863 48.456 273.903 48.904C272.943 49.352 272.239 49.896 271.791 50.536C271.343 51.176 271.119 51.848 271.119 52.552C271.119 53.704 271.663 54.6 272.751 55.24C273.839 55.88 275.247 56.424 276.975 56.872C278.767 57.32 280.623 57.832 282.543 58.408C284.527 58.92 286.383 59.688 288.111 60.712C289.903 61.736 291.343 63.144 292.431 64.936C293.519 66.664 294.063 68.936 294.063 71.752C294.063 76.04 292.527 79.464 289.455 82.024C286.447 84.584 282.095 85.864 276.399 85.864ZM302.894 106.216C301.294 106.216 299.95 105.896 298.862 105.256C297.774 104.68 297.23 103.24 297.23 100.936C297.23 99.528 297.454 98.312 297.902 97.288C298.414 96.264 299.246 95.752 300.398 95.752C301.486 95.752 302.734 95.56 304.142 95.176C305.614 94.792 307.086 94.056 308.558 92.968C310.03 91.944 311.278 90.504 312.302 88.648C313.326 86.856 313.934 84.52 314.126 81.64L297.614 46.312C297.358 45.736 297.23 45.192 297.23 44.68C297.23 43.592 297.678 42.6 298.574 41.704C299.534 40.808 300.654 40.104 301.934 39.592C303.214 39.016 304.398 38.728 305.486 38.728C306.254 38.728 306.958 38.888 307.598 39.208C308.302 39.528 308.782 40.072 309.038 40.84L320.558 69.544L329.774 40.84C330.094 40.072 330.574 39.528 331.214 39.208C331.854 38.888 332.494 38.728 333.134 38.728C334.094 38.728 335.246 39.016 336.59 39.592C337.934 40.104 339.086 40.84 340.046 41.8C341.07 42.696 341.582 43.72 341.582 44.872C341.582 45.448 341.486 45.928 341.294 46.312L327.278 82.12C326.126 85 325.006 87.848 323.918 90.664C322.83 93.544 321.454 96.136 319.79 98.44C318.19 100.808 316.046 102.696 313.358 104.104C310.67 105.512 307.182 106.216 302.894 106.216Z" fill="white"/>
</g>
<defs>
<filter id="filter0_di_342_33" x="0.399902" y="0.808105" width="357.182" height="125.408" filterUnits="userSpaceOnUse" color-interpolation-filters="sRGB">
<feFlood flood-opacity="0" result="BackgroundImageFix"/>
<feColorMatrix in="SourceAlpha" type="matrix" values="0 0 0 0 0 0 0 0 0 0 0 0 0 0 0 0 0 0 127 0" result="hardAlpha"/>
<feOffset dy="4"/>
<feGaussianBlur stdDeviation="8"/>
<feComposite in2="hardAlpha" operator="out"/>
<feColorMatrix type="matrix" values="0 0 0 0 0 0 0 0 0 0 0 0 0 0 0 0 0 0 0.13 0"/>
<feBlend mode="normal" in2="BackgroundImageFix" result="effect1_dropShadow_342_33"/>
<feBlend mode="normal" in="SourceGraphic" in2="effect1_dropShadow_342_33" result="shape"/>
<feColorMatrix in="SourceAlpha" type="matrix" values="0 0 0 0 0 0 0 0 0 0 0 0 0 0 0 0 0 0 127 0" result="hardAlpha"/>
<feOffset dy="-4"/>
<feGaussianBlur stdDeviation="2"/>
<feComposite in2="hardAlpha" operator="arithmetic" k2="-1" k3="1"/>
<feColorMatrix type="matrix" values="0 0 0 0 0 0 0 0 0 0 0 0 0 0 0 0 0 0 0.13 0"/>
<feBlend mode="normal" in2="shape" result="effect2_innerShadow_342_33"/>
</filter>
</defs>
</svg>
